<?xml version="1.0" standalone="no"?>
<!DOCTYPE svg PUBLIC "-//W3C//DTD SVG 20010904//EN"
 "http://www.w3.org/TR/2001/REC-SVG-20010904/DTD/svg10.dtd">
<svg version="1.0" xmlns="http://www.w3.org/2000/svg"
 width="128.000000pt" height="128.000000pt" viewBox="0 0 128.000000 128.000000"
 preserveAspectRatio="xMidYMid meet">

<g transform="translate(0.000000,128.000000) scale(0.100000,-0.100000)"
fill="#000000" stroke="none">
<path d="M644 1256 c-66 -26 -342 -201 -412 -262 -84 -74 -135 -231 -136 -426
-1 -103 0 -108 25 -134 24 -23 26 -30 17 -60 -5 -19 -8 -62 -6 -97 l3 -62 55
-37 c106 -71 329 -123 487 -114 158 9 316 75 431 180 23 21 42 45 42 54 0 8
-12 42 -27 75 l-27 60 22 63 c12 34 22 72 22 83 0 10 -16 75 -36 143 -20 68
-47 172 -60 231 -28 130 -57 184 -122 225 -49 32 -194 102 -209 102 -4 -1 -35
-12 -69 -24z m102 -157 c7 -13 13 -32 14 -41 0 -9 17 -30 37 -47 20 -17 34
-33 31 -36 -3 -3 -27 -10 -54 -14 -27 -5 -84 -18 -127 -30 -43 -12 -82 -19
-87 -16 -5 3 -19 1 -30 -5 -29 -16 -110 -29 -116 -19 -3 5 6 14 20 21 24 11
36 38 17 38 -5 0 -11 9 -14 20 -3 11 -1 20 4 20 5 0 11 0 14 0 9 1 55 48 55
57 0 5 10 15 23 22 12 6 42 22 66 35 59 32 128 30 147 -5z m44 -281 c20 -5 51
-22 70 -38 l34 -28 -47 -22 c-102 -48 -159 -177 -103 -233 10 -10 30 -13 68
-10 74 6 133 29 163 65 28 33 43 32 25 -1 -13 -25 -74 -65 -114 -75 -38 -9
-76 -35 -76 -52 0 -10 7 -13 24 -8 35 8 36 -4 8 -66 -21 -47 -26 -52 -33 -35
-4 11 -8 16 -8 10 -1 -7 -4 -7 -9 0 -4 6 -26 27 -50 48 -30 27 -51 37 -75 37
-36 -1 -72 -23 -63 -39 4 -6 -4 -34 -18 -63 -13 -29 -27 -71 -31 -93 -6 -40
-25 -82 -25 -58 0 7 -7 10 -15 6 -9 -3 -24 2 -34 11 -10 9 -25 14 -35 10 -9
-3 -16 -2 -16 2 0 5 -5 52 -11 104 -6 52 -12 105 -12 117 -1 11 -5 19 -9 16
-5 -2 -8 0 -8 6 0 6 -17 19 -39 30 -41 21 -91 74 -91 96 0 7 7 18 15 25 13 10
15 9 15 -12 0 -52 92 -108 179 -108 43 0 53 4 75 31 14 17 26 39 26 50 0 57
-85 142 -169 169 l-55 17 25 16 c38 25 133 56 234 77 89 18 116 18 185 -2z
m207 -220 c-3 -8 -6 -5 -6 6 -1 11 2 17 5 13 3 -3 4 -12 1 -19z m-557 -33 c11
-13 10 -14 -4 -9 -9 3 -16 10 -16 15 0 13 6 11 20 -6z m-25 -73 c-5 -5 -63 27
-71 39 -3 6 12 0 34 -12 22 -13 39 -25 37 -27z m485 38 c0 -5 -10 -10 -22 -9
-22 0 -22 1 -3 9 11 5 21 9 23 9 1 1 2 -3 2 -9z m-53 -16 c-3 -3 -12 -4 -19
-1 -8 3 -5 6 6 6 11 1 17 -2 13 -5z m-347 -24 c-8 -5 -28 -9 -45 -9 -29 1 -29
1 -5 9 14 4 34 8 45 9 16 1 17 -1 5 -9z m404 -61 c-7 -13 -7 -98 1 -144 4 -23
3 -25 -4 -10 -23 54 -20 165 4 165 4 0 3 -5 -1 -11z m-43 -156 c-9 -16 -10
-15 -11 9 0 14 3 35 8 45 6 15 8 14 10 -9 2 -15 -1 -35 -7 -45z m-46 -98 c5
-13 5 -17 -2 -10 -14 14 -43 104 -42 129 0 12 9 -6 19 -39 10 -33 21 -69 25
-80z m-140 116 c-6 -11 -64 -25 -72 -18 -3 3 10 10 28 16 45 12 51 13 44 2z
m2 -37 c3 -8 1 -20 -4 -25 -13 -13 -43 -1 -43 18 0 8 5 11 10 8 6 -3 10 -1 10
4 0 17 20 13 27 -5z"/>
<path d="M420 386 c0 -9 5 -16 10 -16 6 0 10 4 10 9 0 6 -4 13 -10 16 -5 3
-10 -1 -10 -9z"/>
</g>
</svg>
